<svg xmlns="http://www.w3.org/2000/svg" viewBox="0 0 100 100">
  <rect width="100" height="100" rx="25" fill="#4f46e5" />
  <g transform="translate(20, 20) scale(2.5)">
    <path d="m12 3-1.912 5.813a2 2 0 0 1-1.275 1.275L3 12l5.813 1.912a2 2 0 0 1 1.275 1.275L12 21l1.912-5.813a2 2 0 0 1 1.275-1.275L21 12l-5.813-1.912a2 2 0 0 1-1.275-1.275L12 3Z" fill="white" />
    <path d="M5 3v4" stroke="white" stroke-width="2" stroke-linecap="round" />
    <path d="M19 17v4" stroke="white" stroke-width="2" stroke-linecap="round" />
    <path d="M3 5h4" stroke="white" stroke-width="2" stroke-linecap="round" />
    <path d="M17 19h4" stroke="white" stroke-width="2" stroke-linecap="round" />
  </g>
</svg>
